REM DIRINDEX 1\2\5,1\2\6,1\2\7,1\2\8,1\3\9,1\3\10,1\3\11,1\4\12,1\4\13,1\4\14,1\4\15,1\4\16
REM DIRNAME cjc034,folder01,folder02,folder03,folder04,folder05,folder06,folder07,folder08,folder09,folder10,folder11,folder12,folder13,folder14,folder15
TITLE ""
FILE "1200_sec02_0261_0268.mp3" MP3
  TRACK 01 AUDIO
    TITLE "0:"
    INDEX 01 00:00:00
  TRACK 02 AUDIO
    TITLE "16:cjc034_04679"
    INDEX 01 00:03:25
  TRACK 03 AUDIO
    TITLE "0:"
    INDEX 01 00:07:03
  TRACK 04 AUDIO
    TITLE "16:cjc034_04680"
    INDEX 01 00:07:52
  TRACK 05 AUDIO
    TITLE "0:"
    INDEX 01 00:09:28
  TRACK 06 AUDIO
    TITLE "12:cjc034_04681"
    INDEX 01 00:10:33
  TRACK 07 AUDIO
    TITLE "0:"
    INDEX 01 00:11:56
  TRACK 08 AUDIO
    TITLE "13:cjc034_04682"
    INDEX 01 00:12:11
  TRACK 09 AUDIO
    TITLE "0:"
    INDEX 01 00:13:45
  TRACK 10 AUDIO
    TITLE "14:cjc034_04683"
    INDEX 01 00:14:04
  TRACK 11 AUDIO
    TITLE "0:"
    INDEX 01 00:15:25
  TRACK 12 AUDIO
    TITLE "15:cjc034_04684"
    INDEX 01 00:15:58
  TRACK 13 AUDIO
    TITLE "0:"
    INDEX 01 00:18:58
  TRACK 14 AUDIO
    TITLE "12:cjc034_04685"
    INDEX 01 00:20:16
  TRACK 15 AUDIO
    TITLE "0:"
    INDEX 01 00:21:37
  TRACK 16 AUDIO
    TITLE "13:cjc034_04686"
    INDEX 01 00:21:70
  TRACK 17 AUDIO
    TITLE "0:"
    INDEX 01 00:24:65
  TRACK 18 AUDIO
    TITLE "14:cjc034_04687"
    INDEX 01 00:25:21
  TRACK 19 AUDIO
    TITLE "0:"
    INDEX 01 00:26:44
  TRACK 20 AUDIO
    TITLE "15:cjc034_04688"
    INDEX 01 00:27:00
  TRACK 21 AUDIO
    TITLE "0:"
    INDEX 01 00:30:08
  TRACK 22 AUDIO
    TITLE "12:cjc034_04689"
    INDEX 01 00:31:43
  TRACK 23 AUDIO
    TITLE "0:"
    INDEX 01 00:32:62
  TRACK 24 AUDIO
    TITLE "13:cjc034_04690"
    INDEX 01 00:33:21
  TRACK 25 AUDIO
    TITLE "0:"
    INDEX 01 00:34:38
  TRACK 26 AUDIO
    TITLE "14:cjc034_04691"
    INDEX 01 00:34:73
  TRACK 27 AUDIO
    TITLE "0:"
    INDEX 01 00:36:17
  TRACK 28 AUDIO
    TITLE "15:cjc034_04692"
    INDEX 01 00:36:52
  TRACK 29 AUDIO
    TITLE "0:"
    INDEX 01 00:40:07
  TRACK 30 AUDIO
    TITLE "12:cjc034_04693"
    INDEX 01 00:41:42
  TRACK 31 AUDIO
    TITLE "0:"
    INDEX 01 00:42:55
  TRACK 32 AUDIO
    TITLE "13:cjc034_04694"
    INDEX 01 00:43:17
  TRACK 33 AUDIO
    TITLE "0:"
    INDEX 01 00:45:47
  TRACK 34 AUDIO
    TITLE "14:cjc034_04695"
    INDEX 01 00:46:06
  TRACK 35 AUDIO
    TITLE "0:"
    INDEX 01 00:47:19
  TRACK 36 AUDIO
    TITLE "15:cjc034_04696"
    INDEX 01 00:47:56
  TRACK 37 AUDIO
    TITLE "0:"
    INDEX 01 00:50:54
  TRACK 38 AUDIO
    TITLE "12:cjc034_04697"
    INDEX 01 00:52:14
  TRACK 39 AUDIO
    TITLE "0:"
    INDEX 01 00:53:19
  TRACK 40 AUDIO
    TITLE "13:cjc034_04698"
    INDEX 01 00:53:51
  TRACK 41 AUDIO
    TITLE "0:"
    INDEX 01 00:56:20
  TRACK 42 AUDIO
    TITLE "14:cjc034_04699"
    INDEX 01 00:56:53
  TRACK 43 AUDIO
    TITLE "0:"
    INDEX 01 00:57:60
  TRACK 44 AUDIO
    TITLE "15:cjc034_04700"
    INDEX 01 00:58:15
  TRACK 45 AUDIO
    TITLE "0:"
    INDEX 01 01:00:60
  TRACK 46 AUDIO
    TITLE "12:cjc034_04701"
    INDEX 01 01:02:16
  TRACK 47 AUDIO
    TITLE "0:"
    INDEX 01 01:03:43
  TRACK 48 AUDIO
    TITLE "13:cjc034_04702"
    INDEX 01 01:04:01
  TRACK 49 AUDIO
    TITLE "0:"
    INDEX 01 01:05:38
  TRACK 50 AUDIO
    TITLE "14:cjc034_04703"
    INDEX 01 01:05:69
  TRACK 51 AUDIO
    TITLE "0:"
    INDEX 01 01:07:19
  TRACK 52 AUDIO
    TITLE "15:cjc034_04704"
    INDEX 01 01:07:53
  TRACK 53 AUDIO
    TITLE "0:"
    INDEX 01 01:10:35
  TRACK 54 AUDIO
    TITLE "12:cjc034_04705"
    INDEX 01 01:11:68
  TRACK 55 AUDIO
    TITLE "0:"
    INDEX 01 01:13:12
  TRACK 56 AUDIO
    TITLE "13:cjc034_04706"
    INDEX 01 01:13:45
  TRACK 57 AUDIO
    TITLE "0:"
    INDEX 01 01:15:05
  TRACK 58 AUDIO
    TITLE "14:cjc034_04707"
    INDEX 01 01:15:39
  TRACK 59 AUDIO
    TITLE "0:"
    INDEX 01 01:16:56
  TRACK 60 AUDIO
    TITLE "15:cjc034_04708"
    INDEX 01 01:17:16
  TRACK 61 AUDIO
    TITLE "0:"
    INDEX 01 01:20:49
  TRACK 62 AUDIO
    TITLE "12:cjc034_04709"
    INDEX 01 01:22:07
  TRACK 63 AUDIO
    TITLE "0:"
    INDEX 01 01:23:18
  TRACK 64 AUDIO
    TITLE "13:cjc034_04710"
    INDEX 01 01:23:50
  TRACK 65 AUDIO
    TITLE "0:"
    INDEX 01 01:25:11
  TRACK 66 AUDIO
    TITLE "14:cjc034_04711"
    INDEX 01 01:25:45
  TRACK 67 AUDIO
    TITLE "0:"
    INDEX 01 01:26:52
  TRACK 68 AUDIO
    TITLE "15:cjc034_04712"
    INDEX 01 01:27:10
  TRACK 69 AUDIO
    TITLE "0:"
    INDEX 01 01:31:06
